<svg xmlns="http://www.w3.org/2000/svg" xmlns:xlink="http://www.w3.org/1999/xlink" viewBox="0 0 183.8 134.98"><defs><style>.a{fill:url(#a);}.b{fill:#1b2133;}.c{fill:#fff;}</style><linearGradient id="a" x1="417.8" y1="514" x2="622.93" y2="514" gradientTransform="matrix(1, 0, 0, -1, 0, 1026)" gradientUnits="userSpaceOnUse"><stop offset="0.07" stop-color="#f7e08b"/><stop offset="0.22" stop-color="#f3dc87"/><stop offset="0.37" stop-color="#e8ce7b"/><stop offset="0.52" stop-color="#d5b768"/><stop offset="0.61" stop-color="#c6a55a"/><stop offset="0.85" stop-color="#f7e08b"/><stop offset="0.93" stop-color="#e0c473"/><stop offset="1" stop-color="#c6a55a"/></linearGradient></defs><title>Gujarat Titans logo</title><path class="a" d="M584.46,542.74l2.84-1.9s-5.94-13.39-7.17-16.24-2.37-5-2.37-5a23.5,23.5,0,0,0-4.26-5.24l1.34-1.7s-3.43-7.72-5.71-12.94a19.47,19.47,0,0,0-6.74-8,19.75,19.75,0,0,0-6.65-2.84l-10-2.48-3.31-7.16c-.72-.14-2.57-.47-5.35-.87l-25-33.88-24.9,33.75c-1.86.25-3.72.52-5.62.83l-2.95,6.32-10.28,2.11c-1.52.34-3.45.81-4.59,1.1-2.29.6-8.1,2.26-9.12,2.58l-1.93.6-5,11.08,3.31,4.54L438.28,538.6l2.82,2-21,28.46h66.71L512,579.49l25.19-10.41H603.9Z" transform="translate(-420.1 -444.51)"/><path class="b" d="M578.42,543.24l5.66-3.72L578,525.77c-1.19-2.89-2.06-4.5-2.06-4.5a25.7,25.7,0,0,0-6.18-6.88l2-2.62s-3.27-7.39-5-11.26a16,16,0,0,0-9.7-8.73c-4.45-1.34-12.38-2.93-12.38-2.93l-2,5.87c-1.79-.34-6.7-1.08-6.7-1.08L534.84,498l-2.64-4.82a160.7,160.7,0,0,0-27.14-1.34,221.5,221.5,0,0,0-28.44,2.82l-2.44-5.87c-8.87,1.66-19.8,5.1-19.8,5.1L450.73,502l3.29,4.54-12.5,30.74,5.62,3.9-16.8,22.73H488l24,9.59,24-9.59h57.71Zm-122.78-1.7c-.85.22-4,1.1-4.14,1.14l-7.12-4.93c1.59-.47,4.77-1.36,9.2-2.39l6.14,5.17C459.2,540.62,456.49,541.31,455.64,541.54Zm17.64-3.38-4,.72L464,533.14c1.88-.36,3.85-.7,5.91-1l3.32-.52,4.3,5.89C477.14,537.51,474.34,538,473.28,538.16Zm17.89-2.2c-.87.07-3.61.34-4.12.4l-3.22-6.14c1.81-.2,3.61-.36,5.4-.52l4.14-.33,2.15,6.27C494.94,535.65,492,535.87,491.17,536Zm13.93-.85c-1.93,0-3.83.13-4.08.14l-1.52-6.31c1.61-.07,3.25-.14,4.91-.18,1.48,0,3,0,4.61,0l.43,6.34C509.4,535.07,507.23,535.07,505.1,535.11Zm19,.38c-.23,0-2.15-.16-4.14-.27s-4-.14-4.34-.16l.36-6.18c1.59.05,3.23.13,5,.22l4.59.27Zm10.86,1.21c-2.13-.27-7-.76-8.28-.83l1.72-6.22c3.4.25,6.47.61,9.32.94Zm14.55,2-7.7-1.34,3.42-5.84c3.2.49,6.09,1,8.8,1.5Zm9.43,2.06c-.22-.05-.43-.13-.65-.2a13.49,13.49,0,0,1-4-1.82l5.29-6.27,0,0a1.1,1.1,0,0,0,.18.13,16.27,16.27,0,0,0,3,1.77c.27.13,2.85,1.12,3.79,1.37.2.05,13.06,3.65,14.42,4.08l.33.11-6.36,4.17C572.82,543.71,562.85,541.71,558.89,540.73Z" transform="translate(-420.1 -444.51)"/><path class="b" d="M482.66,491.24c1.79-.25,3.58-.47,5.37-.69.56-1.68,1.1-3.34,1.66-5-.8.09-1.61.18-2.4.29-.36,1-.7,2-1.07,2.93-.58.07-1.16.14-1.73.23-.38.05-.49-.09-.36-.43l1.46-3.7a.85.85,0,0,1,.72-.58c1-.13,1.9-.25,2.85-.36l.87-.74c.16-.49.33-1,.47-1.45-1.43.16-2.84.36-4.26.56a3.12,3.12,0,0,0-1.57.72,3.89,3.89,0,0,0-1.12,1.48c-.72,1.72-1.46,3.43-2.19,5.15a1.26,1.26,0,0,0,0,1.32A1.43,1.43,0,0,0,482.66,491.24Z" transform="translate(-420.1 -444.51)"/><path class="b" d="M492.43,490.23c1.19-.11,2.39-.22,3.58-.31a2.88,2.88,0,0,0,1.66-.63,2.3,2.3,0,0,0,.85-1.41c.45-2.35.89-4.7,1.34-7l-2.26.16c-.47,2.11-.94,4.25-1.43,6.36a.64.64,0,0,1-.67.54L494,488c-.36,0-.51-.11-.42-.45.56-2.13.94-4.25,1.5-6.38l-2.26.22c-.69,2.37-1.23,4.73-1.93,7.1a1.3,1.3,0,0,0,.16,1.32A1.66,1.66,0,0,0,492.43,490.23Z" transform="translate(-420.1 -444.51)"/><path class="b" d="M502.17,487.5l-2.15.11c-.13.69-.23,1.37-.36,2.06q1.63-.11,3.25-.16a2.58,2.58,0,0,0,1.59-.58,2,2,0,0,0,.7-1.37c.22-2.33.43-4.66.65-7-.76,0-1.5.05-2.26.09-.27,2.11-.54,4.23-.81,6.32A.57.57,0,0,1,502.17,487.5Z" transform="translate(-420.1 -444.51)"/><path class="b" d="M535.49,484c.81,2.28,1.64,4.55,2.48,6.81.87.11,1.72.22,2.58.34-.92-2.28-1.82-4.57-2.71-6.85l2.44.27L540,484s-.4-.94-.6-1.43c-2.35-.36-4.7-.67-7-.94.22.7.45,1.39.67,2.1C533.85,483.79,534.68,483.9,535.49,484Z" transform="translate(-420.1 -444.51)"/><path class="b" d="M509.56,480.45c-.89,2.57-1.86,5.15-2.95,7.73,0,.36-.05.7-.07,1.07l2.57-.05c.14-.51.27-1,.42-1.5.92,0,1.86,0,2.8,0,.13.51.23,1,.36,1.5l2.57,0-.05-1.07c-1-2.58-1.93-5.15-2.76-7.72C511.48,480.43,510.52,480.45,509.56,480.45Zm.49,5.31c.31-1.1.58-2.2.87-3.32H511c.25,1.1.51,2.2.78,3.31C511.22,485.76,510.63,485.76,510,485.76Z" transform="translate(-420.1 -444.51)"/><path class="b" d="M522.52,489.47c.85,0,2.58.14,2.58.14,0-.33-.05-.67-.07-1-.69-.81-1.37-1.61-2-2.42l.11,0a1.37,1.37,0,0,0,.6-.4,1.27,1.27,0,0,0,.23-1.07c-.13-.67-.25-1.34-.36-2a2.39,2.39,0,0,0-2.22-2c-1.63-.09-3.25-.14-4.9-.2l.65,8.75,2.57.07c-.11-1-.22-2-.34-3l1.3.05C521.23,487.41,521.87,488.44,522.52,489.47Zm-3.42-5.2c-.05-.54-.13-1.08-.18-1.63l1.81.07a.58.58,0,0,1,.6.54c0,.2.05.42.09.61s-.11.49-.45.47C520.33,484.32,519.72,484.3,519.1,484.26Z" transform="translate(-420.1 -444.51)"/><path class="b" d="M526.42,488.64c0,.36.07.7.09,1.07l2.57.2c0-.49,0-1,0-1.48.94.07,1.86.16,2.8.25l.8,1.55,2.58.27c-.13-.36-.23-.72-.36-1.08-1.64-2.69-3.25-5.38-4.86-8.06l-2.95-.27C526.87,483.6,526.65,486.12,526.42,488.64Zm2.71-5.4c.56,1.14,1.12,2.28,1.7,3.43l-1.77-.16c0-1.08,0-2.19-.07-3.27Z" transform="translate(-420.1 -444.51)"/><path class="b" d="M530,477.63,512,453.2l-17.94,24.43c5.2-.52,11.37-.83,18-.83S524.83,477.11,530,477.63Z" transform="translate(-420.1 -444.51)"/><path class="c" d="M530.34,544.52c1.34.83,2.66,1.68,4,2.53-7.43-.47-16.73-.72-22.32-.72s-14.89.25-22.32.72c1.32-.85,2.64-1.7,4-2.53-12.9,2.1-39.52,6-39.52,6s19.59-.61,28.75-1.55c-1.57.9-3.14,1.81-4.7,2.73,11.24-1.07,25.35-1.63,33.81-1.63s22.57.54,33.81,1.63c-1.55-.92-3.13-1.82-4.7-2.73,9.16.94,28.75,1.55,28.75,1.55S543.24,546.62,530.34,544.52Z" transform="translate(-420.1 -444.51)"/><path class="c" d="M488.15,500.82h0c0,.2-4.72,28.12-4.73,28.21,1-.11,3.65-.36,4.88-.47s4.88-.38,4.88-.38l2.93-28c.52,0,2.6-.16,3.09-.18l3.09-.14c0-.54.34-5.93.36-6.43h0c-8.35.14-19.32,1.64-19.32,1.64-.13.54-.54,2.46-.7,3.29s-.67,3.13-.7,3.29l3.11-.4Z" transform="translate(-420.1 -444.51)"/><path class="c" d="M533.23,528.88l4.75.52c0-.09-2.84-15.77-2.84-15.77l10.32,16.73h0c.22,0,3.42.54,4.55.74l4.55.83c0-.09-9.29-32.54-10.12-35.43l-3.74-.67-3.74-.6c.29,1.26,3.43,15,3.51,15.32h0c-.09-.14-8.82-15.41-9.16-16.08h0l-3.56-.38-3.56-.33c.31,2.55,4.28,34.58,4.28,34.67C529.22,528.52,532,528.75,533.23,528.88Z" transform="translate(-420.1 -444.51)"/><path class="c" d="M463.34,532.06s5.66-1.08,9.4-1.63c0-.09,8.11-34.62,8.22-35.05-3.14.45-7.28,1.23-7.28,1.23-.29,1-10.32,35.34-10.34,35.45Z" transform="translate(-420.1 -444.51)"/><path class="c" d="M471.34,497c.05-.2,2-6.38,2.06-6.65-7.1,1.36-18.07,4.61-18.07,4.61-.09.2-2.8,6.23-3.07,6.81.49-.14,5.29-1.45,5.76-1.59h0c0,.11-14.87,36.54-14.93,36.64s6.61-1.82,10-2.58c0-.09,12.29-35.87,12.29-35.87S470.86,497.11,471.34,497Z" transform="translate(-420.1 -444.51)"/><path class="c" d="M576.76,526.26c-1.43-3.32-1.9-4.16-1.9-4.16a20.55,20.55,0,0,0-4-5,36.15,36.15,0,0,0-3.69-3l-7.84-5.94a4.09,4.09,0,0,1-1.14-1.3c0-.07-.09-.22-.18-.42s-2.73-7.43-2.76-7.52l2.62.67a1.38,1.38,0,0,1,1,.74l1.64,4.14,9.74,7.12,0,0h0a.4.4,0,0,0-.07-.09l-4.3-9.74a15.37,15.37,0,0,0-4-5.69,13.58,13.58,0,0,0-6.31-3.31l-10-2.39,4.17,13.41s.54,1.84.78,2.35a14.9,14.9,0,0,0,4,5.19,24.42,24.42,0,0,0,2.66,2c.4.29,7.39,5.46,8.08,5.93a4.14,4.14,0,0,1,1.66,2.17l2.93,7.48-3.47-.92a1.49,1.49,0,0,1-.92-.74l-1.57-4.21L553.54,516s2.87,9.29,3.2,10.41a9.91,9.91,0,0,0,3.27,4.86,16.59,16.59,0,0,0,5,2.84,42.28,42.28,0,0,0,4.9,1.54c3.14.83,12.29,3.43,12.56,3.52C582.43,539.07,578.15,529.49,576.76,526.26Z" transform="translate(-420.1 -444.51)"/><path class="c" d="M518.23,493.26c-2.22-.11-4.41-.13-6.34-.13-2.31,0-6.09.09-6.09.09-.34,2.1-6.25,33.72-6.43,34.53,0,0,5.71-.22,9.74-.2,0,0,.67-7.57.67-7.57l4.9.07c.09.6,1.14,7.61,1.16,7.7s5.38.2,9.72.51h0C525.5,528.15,518.25,493.37,518.23,493.26Zm-4.37,19.91-3.49-.05,1.46-14.31,2,14.37Z" transform="translate(-420.1 -444.51)"/></svg>