<svg xmlns="http://www.w3.org/2000/svg" xmlns:xlink="http://www.w3.org/1999/xlink" viewBox="0 0 228.16 291.9"><defs><linearGradient id="a" x1="460.28" y1="602.73" x2="563.5" y2="602.73" gradientTransform="matrix(1, 0, 0, -1, 0, 1026)" gradientUnits="userSpaceOnUse"><stop offset="0" stop-color="#cbb898"/><stop offset="0.49" stop-color="#ffe7c4"/><stop offset="1" stop-color="#c3b296"/></linearGradient><linearGradient id="b" x1="450.44" y1="494.3" x2="571.35" y2="615.22" gradientTransform="matrix(1, 0, 0, -1, 0, 1026)" gradientUnits="userSpaceOnUse"><stop offset="0.06" stop-color="#ffdba7"/><stop offset="0.5" stop-color="#c3b296"/><stop offset="1" stop-color="#ffdba7"/></linearGradient><linearGradient id="c" x1="438.1" y1="463.9" x2="582.12" y2="463.9" gradientTransform="matrix(1, 0, 0, -1, 0, 1026)" gradientUnits="userSpaceOnUse"><stop offset="0" stop-color="#ffdba7"/><stop offset="0.13" stop-color="#c3b296"/><stop offset="0.26" stop-color="#ffe7c4"/><stop offset="0.49" stop-color="#c29977"/><stop offset="0.64" stop-color="#ffe7c4"/><stop offset="1" stop-color="#c29977"/></linearGradient><linearGradient id="d" x1="397.92" y1="514" x2="626.08" y2="514" xlink:href="#c"/></defs><title>Punjab Kings logo - Brandlogos.net</title><path d="M512.44,648.5c-6.12-1.3-32-10.77-56.67-29.83C441.48,607.62,430.1,595.29,422.1,582a98.94,98.94,0,0,1-14.85-52.2V398.38A145.48,145.48,0,0,0,445,403.45c27.08,0,50.19-8.4,67-24.31,17,16.18,39.44,24.43,66.63,24.43a142.34,142.34,0,0,0,38.17-5.3v131.6A99.55,99.55,0,0,1,602.1,582c-8,13.25-19.25,25.58-33.4,36.64C544.23,637.74,518.51,647.2,512.44,648.5Z" transform="translate(-397.92 -366.05)" style="fill:#e41c1e"/><path d="M512,382.32a87.92,87.92,0,0,0,31.49,18.18,111.62,111.62,0,0,0,35.17,5.36,146.28,146.28,0,0,0,35.84-4.57V529.83a97.21,97.21,0,0,1-14.38,50.92c-7.87,13-18.91,25.12-32.84,36-23.6,18.47-48.16,27.82-54.82,29.36-6.67-1.59-31.48-10.9-55.24-29.29-14.06-10.88-25.22-23-33.16-36a96.69,96.69,0,0,1-14.5-51V401.41A149,149,0,0,0,445,405.78a113.39,113.39,0,0,0,35.4-5.33A87.51,87.51,0,0,0,512,382.32m0-6.44c-20.06,20.06-45.8,25.23-67,25.23a139.28,139.28,0,0,1-40.09-5.87V529.83c0,82.47,96.06,119,107.57,121.05,11.61-2.06,106.71-38.77,106.71-121V395.06a136.66,136.66,0,0,1-40.51,6.13c-21.08,0-46.57-5.22-66.66-25.31Z" transform="translate(-397.92 -366.05)" style="fill:#fffcf1"/><path d="M523.21,417.68l-1-2.67h5.13v16.56H516.5a2.15,2.15,0,0,1-2.15-2.15v-4h4.18v3.46h4.68ZM561.37,423s2.13.54,2.13,2.18v4.51a1.89,1.89,0,0,1-1.87,1.91H548.87V417.7l-.93-2.67h13.58a1.89,1.89,0,0,1,1.88,1.89v3.9c0,1.55-2.07,2.17-2.07,2.17m-8.23-1.42h6.17v-3.89H553.1Zm6.24,2.67H553.1v4.61h6.24ZM541.2,415l5.31,16.56h-4l-1.41-4.35h-6.22l-1.42,4.35h-4l4.78-14-.06-2.59ZM538,417.57l-2.2,6.79h4.4ZM473.49,415a2.32,2.32,0,0,1,2.31,2.31v6.46a3.38,3.38,0,0,1-.08.67,1.71,1.71,0,0,1-.29.68,1.82,1.82,0,0,1-.64.54,2.35,2.35,0,0,1-1.11.23H465.4v5.7h-4.17V417.68l-.95-2.67h13.21m-1.82,2.67H465.4v5.54h6.27ZM489.29,429h-6.37V415h-5.07l1,2.67v11.78a2.12,2.12,0,0,0,2.06,2.14h12.51V415h-5l.94,2.67Zm18.26-2.7L500.66,415h-5.19l.95,2.67v13.89h4.17V421l6.59,10.56h4.49V415h-4.12v11.27Z" transform="translate(-397.92 -366.05)" style="fill:url(#a)"/><path d="M560.83,488.35A248.31,248.31,0,0,0,529.77,485a4.68,4.68,0,0,1-4.86-4.91V439.88h29.6c3.94,0,6.26,2.19,6.28,4.7v6.17l-10.34-.55a2,2,0,0,1-2.13-1.78v-2.77H537.4v33.82s8.5.33,10.91.86V461.76c-.3,0-5.44-.33-5.44-.33l2-5.62,9.87.37a6.28,6.28,0,0,1,6,6.59Zm-42.42-48.47H506v15.48l-11-15.48H482.48V486c4.11-.49,8.28-.6,12.51-.89v-30l11,15.77v13.67c2.4-.07,4.8-.1,7.23-.1h5.27Zm83.55,14v-8.56c0-3.55-2.76-5.44-6-5.44H566.8V457c0,5.22,5.77,5.87,5.77,5.87s13.43,1.51,16.89,2v22c-3.27-.93-10.17-2.29-10.17-2.29v-9.34a2.4,2.4,0,0,0-2-2.16c-3.11-.55-10.53-1.67-10.53-1.67v18.11a205.19,205.19,0,0,1,35.16,10.55V466.69a7.5,7.5,0,0,0-6.11-7.62h0s-5.25-.88-16.55-1.75V445.66H589.4v4.42a2.56,2.56,0,0,0,2.42,2.49ZM458.72,489.46l-8.05-27.11-3.27.3,9.88-22.77h-13l-8.74,18.48V439.88H421.81v60.28a121.6,121.6,0,0,1,13.73-5V464.57l2.26-.38,7.45,28.16C448.94,491.21,458.72,489.46,458.72,489.46Zm17.22-49.58H463.1v48.69a120.92,120.92,0,0,1,12.8-1.89Z" transform="translate(-397.92 -366.05)" style="fill:#fffcf1;stroke-miterlimit:10;stroke-width:2.309999942779541px;stroke:url(#b)"/><path d="M559.73,605.1s-.77,3.39-6.41,4.67a15.32,15.32,0,0,1,3.06,2.24s-2.72,3.83-9.39,3.83c-8.76,0-14.21-7.62-14.21-7.62a17.52,17.52,0,0,0,7.82,1.64c-15-9.25-6.7-26.69-6.7-26.69s-1.07,11.94,3.78,17.94C544.45,609.47,557.1,606.38,559.73,605.1Zm13-45.75c-8.63-3.45-17.78-1.17-17.78-1.17-.91,5.94-2.53,13.77-2.53,13.77s6.29-6.12,8.18-12.68l1,2.23a7.23,7.23,0,0,1,7.66.36l1.53-1.21c0,.21.35,11.45.35,11.45s9.06-9.77,1.6-12.75Zm-9.06,34.12c-2,5.14-7.51,7.13-7.51,7.13l-.21,1.11a11.06,11.06,0,0,0-7.16-.22c2.61-3.68,1.93-9.6,1.93-9.6a19.76,19.76,0,0,1-10.16,9.68,19.26,19.26,0,0,0,11.48,3.8c3.55-.06,6.36-.94,8.39-2.79a11,11,0,0,0,3.25-9.11ZM491,516.1h0a31.28,31.28,0,0,0-8.42-3.76c17.27-3.82,38.18,1.47,38.18,1.47s-14.21-10.33-32.37-10.33c-25.75,0-38.78,15.37-38.78,15.37s6.53-4.84,23.26-5.54a51.5,51.5,0,0,0-34.79,35.17S454.71,517.57,491,516.1Zm48.91,66.09c-.41,7.06,3.48,10.9,3.48,10.9a45.64,45.64,0,0,1,5.27-22.31c-3.25,0-8.33,4.37-8.74,11.41Zm-15.54-70s12.16-.47,19.65,4.21h0s-8.6-15.67-21.93-19.47h0s6.94,5,8.65,10.06a45.49,45.49,0,0,0-24.54-11.75,57.09,57.09,0,0,0-25,1.89S494,497,505.57,501c13.18,4.57,18.83,11.24,18.83,11.24Zm56.53,37.17c-.16.18-3.8,4.42-5,7.8l-.17.51h.63c.52,0,2.86-.22,4.08-4l1.66-5.75Zm-92,7.73a44.12,44.12,0,0,0-14.38,17c-.81-8.92,5.74-23.95,5.74-23.95C455.22,580.48,469.1,609,469.1,609s.41-10.81,2.66-18.4c1.5,16,11.92,27.46,11.92,27.46S470.37,589,489,557.14Zm21.51,13.84S503.17,581,502,592.49c-2.62-10.61,2.13-26.49,2.13-26.49s-8.95,8.7-10.59,20.22a54.28,54.28,0,0,1,6.28-31.35s-12.79,9.82-13.88,34a65.36,65.36,0,0,0,8.27,34.34s-1.2-11.73-.72-18.41c5,18.48,17.63,24.77,17.63,24.77s-6-7.65-7.67-23.93c2.14,6.28,8.69,14.72,15.3,18.15-16.42-22.62-8.25-52.81-8.25-52.81Zm-33.82-28.28,1-1.28s-9.65,3.21-18.3,13.7c3-8.46,12.23-17.71,12.23-17.71a45.26,45.26,0,0,0-16,9.78c4.64-10.9,22.7-22.94,22.7-22.94s-17.33,4.94-27.75,17.38c-12.39,15-12,28.71-12,28.71s3.59-7.58,9.15-12.23c-5.21,11.92-2.44,25.07-1.4,29l.51,1.93.3-2c1.15-7.41,3.85-17.26,7.47-23.92-1.36,8.54-1.64,27.53,2.89,35.74l1.27,2.31-.54-2.55c0-.25-4.73-26.24,18.56-55.87Zm23.22-14.4s-10.09-7.82-16.76-4.57a6.32,6.32,0,0,0-3.91,6.63c.24,4.16,5.17,9.09,14.3,6.79,0,0-8.46.64-10.38-5.15-1.3-3.92,2.71-5.49,2.71-5.49a9.31,9.31,0,0,0,8.62,6.31,7.09,7.09,0,0,0,3.43-.77,8.53,8.53,0,0,0-3.13-3.59,17.08,17.08,0,0,1,5.17-.11Zm35.5,46-.26,1.82,9.76-14.69s-7.8-3.63-8-10.27,5.84-8.71,8.76-8.68c-6.52,3.38-4.17,8.75-4.17,8.75s1.41-6.74,10.07-4c-2,.4-5.3,1.24-5.87,4.7-.3,1.86,1.29,3.81,4.82,3.56,19.82-1.37,24.82,2.2,24.82,2.2s3.7-11.61-8.32-16a18.34,18.34,0,0,1,12.61,2.15l2.28,1.33-1.76-2c-4.9-5.45-13.7-12.08-27.85-12.66h-.51v.09h-.12a9.51,9.51,0,0,1-10.26-1.25c-4.24,2.25-9.89-1.06-9.89-1.06s1.06,2.94,6,3.17a9.39,9.39,0,0,1-10.23-1.32,9.75,9.75,0,0,1-3.21-8.16,11.14,11.14,0,0,0,11.1,1.81c6.53-1.51,8.83,3.82,8.84,3.84s6.38,2.72,10.19-2.87h.06l-.71-.61A37.18,37.18,0,0,0,542.2,518a45.47,45.47,0,0,0-29.63,0h0c-1.52.4-9.48,2.27-17.31-1l-1.74-.73,1.27,1.39a18.32,18.32,0,0,0,18.29,5.5c-3.08,5-11.89,7.18-11.89,7.18a11.61,11.61,0,0,0,10,1.55c-6.35,5.19-7.1,12-4.91,16.46a12.2,12.2,0,0,0,9.91,6.75s-3-7.8,1.51-14.93c-.46,3-.64,8.91,3.63,13.1,8,7.81,6.83,16.5,6.52,18.16l-.27,1.47,1-1.12c2.68-3,3.15-8.5,3.17-10.91a16.14,16.14,0,0,1,3.63,13.35Z" transform="translate(-397.92 -366.05)" style="fill:url(#c)"/><path d="M512,377.83a84.53,84.53,0,0,0,32.52,19.56,108.65,108.65,0,0,0,34.14,5.18,142.84,142.84,0,0,0,39.11-5.62V529.83a100.39,100.39,0,0,1-14.84,52.62c-8.07,13.35-19.38,25.76-33.62,36.89-24.85,19.43-51,29-56.85,30.13-5.85-1.18-32.25-10.71-57.25-30-14.38-11.13-25.8-23.54-34-36.9a99.86,99.86,0,0,1-15-52.69V397.12a145.54,145.54,0,0,0,38.7,5.38,110.5,110.5,0,0,0,34.38-5.16A84.19,84.19,0,0,0,512,377.83m0-2c-20.06,20.06-45.8,25.23-67,25.23a139.28,139.28,0,0,1-40.09-5.87V529.83c0,82.47,96.06,119,107.57,121.05,11.61-2.06,106.71-38.77,106.71-121V395.06a136.66,136.66,0,0,1-40.51,6.13c-21.08,0-46.57-5.22-66.66-25.31Z" transform="translate(-397.92 -366.05)" style="fill:#425cc7"/><path d="M512,375.88c20.12,20.09,45.58,25.31,66.66,25.31a136.66,136.66,0,0,0,40.51-6.13V529.83c0,82.28-95.1,119-106.71,121.05-11.51-2-107.57-38.58-107.57-121V395.24A139.28,139.28,0,0,0,445,401.11c21.22,0,47-5.17,67-25.23m0-9.83L507.1,371a75.68,75.68,0,0,1-30.32,18.45A102,102,0,0,1,445,394.16a133.52,133.52,0,0,1-37.9-5.52l-9.18-3.07V529.83a108.13,108.13,0,0,0,16.18,57c8.68,14.23,20.78,27.4,36,39.15,26.37,20.4,54.44,30.52,61.15,31.71l1.21.22,1.22-.22c6.66-1.18,34.54-11.31,60.77-31.81,15-11.76,27-24.94,35.63-39.16a108.66,108.66,0,0,0,16-56.93V385.29l-9.23,3.2a130.88,130.88,0,0,1-38.23,5.75,100.36,100.36,0,0,1-31.52-4.77A76.15,76.15,0,0,1,516.9,371L512,366Z" transform="translate(-397.92 -366.05)" style="fill:url(#d)"/></svg>