<svg xmlns="http://www.w3.org/2000/svg" version="1.1" viewBox="0 0 256 256"><path d="M146.37 3.37c29.9-6.62 59.68 24.43 54.77 50.68-.5 13.08-9.25 24.74-14.14 35.9-15.98 30.17-31.72 60.78-48.08 92.27 14.87-5.11 31.09-7.52 44.64-15.65 8.55-13.32 9.19-30.09 14.72-44.74 14.86 7.26 31.43 15.1 38.87 31.03 5.14 9.5 6.64 23.67 5.07 28.22-1.7 17.97-13.79 35.17-31.33 40.82-16.23 7.21-39.87-2.5-56.64-13.24-7.8 14.01-13.26 31.45-29 38.59-23.97 15.74-60.83.91-67.46-27.03-3.94-12.28-1.29-25.51 4.88-36.54 19.29-35.71 37.24-71.25 55.73-106.33 2.17-.84-1.89-3.83-1.5-1.41-13.5 4.22-27.72 7.21-40.48 13.48-9.85 12.31-9.27 30.66-15.54 43.81-7.35-5.74-17.04-8.21-24.52-13.6C15.14 107.65 7.3 76.94 19.98 55.99c6.53-11.9 18.63-20.7 32.09-22.9 14.94-4.35 34.94 6.14 49.64 14.95 10.11-18.78 20.22-41.23 44.66-44.67Z" fill="#96f" opacity="1"/></svg>